<svg xmlns="http://www.w3.org/2000/svg" viewBox="0 0 80 80" width="80" height="80" role="img" aria-label="Bitacora">
  <defs>
    <mask id="mono">
      <rect x="15" y="9" width="50" height="62" rx="9" fill="#ffffff"/>
      <rect x="23.5" y="9" width="2.5" height="62" fill="#000000"/>
      <path d="M49 9 h11 v22 l-5.5 -5 -5.5 5 z" fill="#000000"/>
      <path d="M44,32c3,0,5.5,2.5,5.5,5.5v.7c0,2-2.2,2.4-4,2.8,1.9.4,4.1,1.1,4,2.6v.9c0,3-2.5,5.5-5.5,5.5s-5.5-2.5-5.5-5.5v-7c0-3,2.5-5.5,5.5-5.5Z" fill="#000000"/>
      <path d="M34 47 A 10 10 0 0 0 54 47" fill="none" stroke="#000000" stroke-width="3.2" stroke-linecap="round"/>
      <line x1="44" y1="57" x2="44" y2="63" stroke="#000000" stroke-width="3.2" stroke-linecap="round"/>
      <line x1="39" y1="64" x2="49" y2="64" stroke="#000000" stroke-width="3.2" stroke-linecap="round"/>
    </mask>
  </defs>
  <rect x="0" y="0" width="80" height="80" fill="#075E54" mask="url(#mono)"/>
</svg>
